M48
; DRILL file KiCad 10.0.6-10.0.6~ubuntu22.04.1 date 2026-10-10T08:14:39
; FORMAT={-:-/ absolute / metric / decimal}
; #@! TF.CreationDate,2026-10-10T08:14:39+00:00
; #@! TF.GenerationSoftware,Kicad,Pcbnew,10.0.6-10.0.6~ubuntu22.04.1
; #@! TF.FileFunction,Plated,1,2,PTH
FMAT,2
METRIC
; #@! TA.AperFunction,Plated,PTH,ComponentDrill
T1C0.700
; #@! TA.AperFunction,Plated,PTH,ComponentDrill
T2C0.800
; #@! TA.AperFunction,Plated,PTH,ComponentDrill
T3C0.889
; #@! TA.AperFunction,Plated,PTH,ComponentDrill
T4C1.000
; #@! TA.AperFunction,Plated,PTH,ComponentDrill
T5C1.500
%
G90
G05
T1
X220.19Y-82.5
X227.81Y-82.5
T2
X220.0Y-87.0
X222.54Y-87.0
X225.08Y-87.0
X227.62Y-87.0
T3
X239.547Y-94.271
X239.547Y-109.511
X242.087Y-94.271
X242.087Y-109.511
X244.627Y-94.271
X244.627Y-109.511
X247.167Y-94.271
X247.167Y-109.511
X249.707Y-94.271
X249.707Y-109.511
X252.248Y-94.271
X252.248Y-109.511
X254.787Y-94.271
X254.787Y-109.511
T4
X219.19Y-92.492
X221.73Y-92.492
X224.27Y-92.492
X226.81Y-92.492
X238.5Y-117.34
X238.5Y-119.88
X238.5Y-122.42
X238.5Y-124.96
X238.5Y-127.5
X238.5Y-130.04
X238.5Y-132.58
X238.5Y-135.12
T5
X193.19Y-95.96
X199.54Y-93.42
X200.95Y-127.84
X207.3Y-125.3
M30
