%TF.GenerationSoftware,KiCad,Pcbnew,10.0.6-10.0.6~ubuntu22.04.1*%
%TF.CreationDate,2026-10-10T08:12:41+00:00*%
%TF.ProjectId,starbie,73746172-6269-4652-9e6b-696361645f70,rev?*%
%TF.SameCoordinates,Original*%
%TF.FileFunction,Copper,L1,Top*%
%TF.FilePolarity,Positive*%
%FSLAX46Y46*%
G04 Gerber Fmt 4.6, Leading zero omitted, Abs format (unit mm)*
G04 Created by KiCad (PCBNEW 10.0.6-10.0.6~ubuntu22.04.1) date 2026-10-10 08:12:41*
%MOMM*%
%LPD*%
G01*
G04 APERTURE LIST*
G04 Aperture macros list*
%AMRoundRect*
0 Rectangle with rounded corners*
0 $1 Rounding radius*
0 $2 $3 $4 $5 $6 $7 $8 $9 X,Y pos of 4 corners*
0 Add a 4 corners polygon primitive as box body*
4,1,4,$2,$3,$4,$5,$6,$7,$8,$9,$2,$3,0*
0 Add four circle primitives for the rounded corners*
1,1,$1+$1,$2,$3*
1,1,$1+$1,$4,$5*
1,1,$1+$1,$6,$7*
1,1,$1+$1,$8,$9*
0 Add four rect primitives between the rounded corners*
20,1,$1+$1,$2,$3,$4,$5,0*
20,1,$1+$1,$4,$5,$6,$7,0*
20,1,$1+$1,$6,$7,$8,$9,0*
20,1,$1+$1,$8,$9,$2,$3,0*%
G04 Aperture macros list end*
%TA.AperFunction,ComponentPad*%
%ADD10R,1.700000X1.700000*%
%TD*%
%TA.AperFunction,ComponentPad*%
%ADD11O,1.700000X1.700000*%
%TD*%
%TA.AperFunction,ComponentPad*%
%ADD12C,2.200000*%
%TD*%
%TA.AperFunction,SMDPad,CuDef*%
%ADD13RoundRect,0.152400X0.609600X-1.063600X0.609600X1.063600X-0.609600X1.063600X-0.609600X-1.063600X0*%
%TD*%
%TA.AperFunction,ComponentPad*%
%ADD14C,1.524000*%
%TD*%
%TA.AperFunction,SMDPad,CuDef*%
%ADD15RoundRect,0.152400X-0.609600X1.063600X-0.609600X-1.063600X0.609600X-1.063600X0.609600X1.063600X0*%
%TD*%
%TA.AperFunction,ComponentPad*%
%ADD16R,1.500000X1.500000*%
%TD*%
%TA.AperFunction,ComponentPad*%
%ADD17C,1.500000*%
%TD*%
%TA.AperFunction,ComponentPad*%
%ADD18C,1.700000*%
%TD*%
%TA.AperFunction,ComponentPad*%
%ADD19C,1.400000*%
%TD*%
%TA.AperFunction,Conductor*%
%ADD20C,0.200000*%
%TD*%
G04 APERTURE END LIST*
D10*
%TO.P,J1,1,Pin_1_1*%
%TO.N,GND*%
X219190000Y-92492000D03*
D11*
%TO.P,J1,2,Pin_2_2*%
%TO.N,+3.3V*%
X221730000Y-92492000D03*
%TO.P,J1,3,Pin_3_3*%
%TO.N,unconnected-(J1-Pin_3-Pad3)*%
X224270000Y-92492000D03*
%TO.P,J1,4,Pin_4_4*%
%TO.N,unconnected-(J1-Pin_4-Pad4)*%
X226810000Y-92492000D03*
%TD*%
D12*
%TO.P,SW2,1,1_1*%
%TO.N,unconnected-(SW2-Pad1)*%
X207300000Y-125300000D03*
%TO.P,SW2,2,2_2*%
%TO.N,GND*%
X200950000Y-127840000D03*
%TD*%
D13*
%TO.P,U2,1,D0_1*%
%TO.N,unconnected-(U2-D0-Pad1)_1*%
X254787500Y-93436000D03*
D14*
%TO.N,unconnected-(U2-D0-Pad1)*%
X254787500Y-94271000D03*
D13*
%TO.P,U2,2,D1_2*%
%TO.N,unconnected-(U2-D1-Pad2)_1*%
X252247500Y-93436000D03*
D14*
%TO.N,unconnected-(U2-D1-Pad2)*%
X252247500Y-94271000D03*
D13*
%TO.P,U2,3,D2_3*%
%TO.N,unconnected-(U2-D2-Pad3)*%
X249707500Y-93436000D03*
D14*
%TO.N,unconnected-(U2-D2-Pad3)_1*%
X249707500Y-94271000D03*
D13*
%TO.P,U2,4,D3_4*%
%TO.N,unconnected-(U2-D3-Pad4)_1*%
X247167500Y-93436000D03*
D14*
%TO.N,unconnected-(U2-D3-Pad4)*%
X247167500Y-94271000D03*
D13*
%TO.P,U2,5,D4_5*%
%TO.N,unconnected-(U2-D4-Pad5)*%
X244627500Y-93436000D03*
D14*
%TO.N,unconnected-(U2-D4-Pad5)_1*%
X244627500Y-94271000D03*
D13*
%TO.P,U2,6,D5_6*%
%TO.N,unconnected-(U2-D5-Pad6)*%
X242087500Y-93436000D03*
D14*
%TO.N,unconnected-(U2-D5-Pad6)_1*%
X242087500Y-94271000D03*
D13*
%TO.P,U2,7,D6_7*%
%TO.N,unconnected-(U2-D6-Pad7)_1*%
X239547500Y-93436000D03*
D14*
%TO.N,unconnected-(U2-D6-Pad7)*%
X239547500Y-94271000D03*
%TO.P,U2,8,D7_8*%
%TO.N,unconnected-(U2-D7-Pad8)*%
X239547500Y-109511000D03*
D15*
%TO.N,unconnected-(U2-D7-Pad8)_1*%
X239547500Y-110346000D03*
D14*
%TO.P,U2,9,D8_9*%
%TO.N,unconnected-(U2-D8-Pad9)_1*%
X242087500Y-109511000D03*
D15*
%TO.N,unconnected-(U2-D8-Pad9)*%
X242087500Y-110346000D03*
D14*
%TO.P,U2,10,D9/BOOT_10*%
%TO.N,unconnected-(U2-D9{slash}BOOT-Pad10)_1*%
X244627500Y-109511000D03*
D15*
%TO.N,unconnected-(U2-D9{slash}BOOT-Pad10)*%
X244627500Y-110346000D03*
D14*
%TO.P,U2,11,D10_11*%
%TO.N,unconnected-(U2-D10-Pad11)*%
X247167500Y-109511000D03*
D15*
%TO.N,unconnected-(U2-D10-Pad11)_1*%
X247167500Y-110346000D03*
D14*
%TO.P,U2,12,3V3_OUT_12*%
%TO.N,+3.3V*%
X249707500Y-109511000D03*
D15*
X249707500Y-110346000D03*
D14*
%TO.P,U2,13,GND_13*%
%TO.N,GND*%
X252247500Y-109511000D03*
D15*
X252247500Y-110346000D03*
D14*
%TO.P,U2,14,VBUS_14*%
%TO.N,unconnected-(U2-VBUS-Pad14)*%
X254787500Y-109511000D03*
D15*
X254787500Y-110346000D03*
%TD*%
D16*
%TO.P,U1,1,VDD_1*%
%TO.N,+3.3V*%
X220000000Y-87000000D03*
D17*
%TO.P,U1,2,DATA_2*%
%TO.N,unconnected-(U1-DATA-Pad2)*%
X222540000Y-87000000D03*
%TO.P,U1,3,NC_3*%
%TO.N,unconnected-(U1-NC-Pad3)*%
X225080000Y-87000000D03*
%TO.P,U1,4,GND_4*%
%TO.N,GND*%
X227620000Y-87000000D03*
%TD*%
D10*
%TO.P,J2,1,Pin_1_1*%
%TO.N,+3.3V*%
X238500000Y-117340000D03*
D18*
%TO.P,J2,2,Pin_2_2*%
%TO.N,GND*%
X238500000Y-119880000D03*
%TO.P,J2,3,Pin_3_3*%
%TO.N,unconnected-(J2-Pin_3-Pad3)*%
X238500000Y-122420000D03*
%TO.P,J2,4,Pin_4_4*%
%TO.N,unconnected-(J2-Pin_4-Pad4)*%
X238500000Y-124960000D03*
%TO.P,J2,5,Pin_5_5*%
%TO.N,unconnected-(J2-Pin_5-Pad5)*%
X238500000Y-127500000D03*
%TO.P,J2,6,Pin_6_6*%
%TO.N,unconnected-(J2-Pin_6-Pad6)*%
X238500000Y-130040000D03*
%TO.P,J2,7,Pin_7_7*%
%TO.N,unconnected-(J2-Pin_7-Pad7)*%
X238500000Y-132580000D03*
%TO.P,J2,8,Pin_8_8*%
%TO.N,unconnected-(J2-Pin_8-Pad8)*%
X238500000Y-135120000D03*
%TD*%
D12*
%TO.P,SW1,1,1_1*%
%TO.N,unconnected-(SW1-Pad1)*%
X199540000Y-93420000D03*
%TO.P,SW1,2,2_2*%
%TO.N,GND*%
X193190000Y-95960000D03*
%TD*%
D19*
%TO.P,R1,1*%
%TO.N,+3.3V*%
X220190000Y-82500000D03*
%TO.P,R1,2*%
%TO.N,unconnected-(R1-Pad2)*%
X227810000Y-82500000D03*
%TD*%
%TO.N,GND*%
D20*
X200950000Y-127840000D02*
X200950000Y-105773402D01*
X193190000Y-98013402D02*
X193190000Y-95960000D01*
X222120000Y-81500000D02*
X219775786Y-81500000D01*
X218950000Y-92252000D02*
X219190000Y-92492000D01*
X242713500Y-119880000D02*
X238500000Y-119880000D01*
X200950000Y-105773402D02*
X193190000Y-98013402D01*
X252247500Y-109511000D02*
X252247500Y-110346000D01*
X219775786Y-81500000D02*
X218950000Y-82325786D01*
X215722000Y-95960000D02*
X219190000Y-92492000D01*
X227620000Y-87000000D02*
X222120000Y-81500000D01*
X215722000Y-101136138D02*
X215722000Y-95960000D01*
X252247500Y-110346000D02*
X242713500Y-119880000D01*
X218950000Y-82325786D02*
X218950000Y-92252000D01*
X193190000Y-95960000D02*
X215722000Y-95960000D01*
X238500000Y-119880000D02*
X234465862Y-119880000D01*
X234465862Y-119880000D02*
X215722000Y-101136138D01*
%TO.N,+3.3V*%
X238500000Y-116290000D02*
X221730000Y-99520000D01*
X249707500Y-110588630D02*
X242956130Y-117340000D01*
X221730000Y-92492000D02*
X220000000Y-90762000D01*
X220000000Y-87000000D02*
X220000000Y-86500000D01*
X249707500Y-109511000D02*
X249707500Y-110588630D01*
X220000000Y-90762000D02*
X220000000Y-87000000D01*
X221730000Y-99520000D02*
X221730000Y-92492000D01*
X238500000Y-117340000D02*
X238500000Y-116290000D01*
X220000000Y-86500000D02*
X220190000Y-86310000D01*
X242956130Y-117340000D02*
X238500000Y-117340000D01*
X220190000Y-86310000D02*
X220190000Y-82500000D01*
%TD*%
M02*
