%TF.GenerationSoftware,KiCad,Pcbnew,10.0.6-10.0.6~ubuntu22.04.1*%
%TF.CreationDate,2026-10-10T08:12:41+00:00*%
%TF.ProjectId,starbie,73746172-6269-4652-9e6b-696361645f70,rev?*%
%TF.SameCoordinates,Original*%
%TF.FileFunction,Soldermask,Top*%
%TF.FilePolarity,Negative*%
%FSLAX46Y46*%
G04 Gerber Fmt 4.6, Leading zero omitted, Abs format (unit mm)*
G04 Created by KiCad (PCBNEW 10.0.6-10.0.6~ubuntu22.04.1) date 2026-10-10 08:12:41*
%MOMM*%
%LPD*%
G01*
G04 APERTURE LIST*
G04 Aperture macros list*
%AMRoundRect*
0 Rectangle with rounded corners*
0 $1 Rounding radius*
0 $2 $3 $4 $5 $6 $7 $8 $9 X,Y pos of 4 corners*
0 Add a 4 corners polygon primitive as box body*
4,1,4,$2,$3,$4,$5,$6,$7,$8,$9,$2,$3,0*
0 Add four circle primitives for the rounded corners*
1,1,$1+$1,$2,$3*
1,1,$1+$1,$4,$5*
1,1,$1+$1,$6,$7*
1,1,$1+$1,$8,$9*
0 Add four rect primitives between the rounded corners*
20,1,$1+$1,$2,$3,$4,$5,0*
20,1,$1+$1,$4,$5,$6,$7,0*
20,1,$1+$1,$6,$7,$8,$9,0*
20,1,$1+$1,$8,$9,$2,$3,0*%
G04 Aperture macros list end*
%ADD10O,3.800000X2.900000*%
%ADD11R,1.700000X1.700000*%
%ADD12O,1.700000X1.700000*%
%ADD13C,1.700000*%
%ADD14C,4.000000*%
%ADD15C,2.200000*%
%ADD16RoundRect,0.152400X0.609600X-1.063600X0.609600X1.063600X-0.609600X1.063600X-0.609600X-1.063600X0*%
%ADD17C,1.524000*%
%ADD18RoundRect,0.152400X-0.609600X1.063600X-0.609600X-1.063600X0.609600X-1.063600X0.609600X1.063600X0*%
%ADD19R,1.500000X1.500000*%
%ADD20C,1.500000*%
%ADD21C,1.400000*%
G04 APERTURE END LIST*
D10*
%TO.C,J1*%
X211824000Y-93127000D03*
X211824000Y-116241000D03*
X234176000Y-93127000D03*
X234176000Y-116241000D03*
D11*
X219190000Y-92492000D03*
D12*
X221730000Y-92492000D03*
X224270000Y-92492000D03*
X226810000Y-92492000D03*
%TD*%
D13*
%TO.C,SW2*%
X199680000Y-130380000D03*
D14*
X204760000Y-130380000D03*
D13*
X209840000Y-130380000D03*
D15*
X207300000Y-125300000D03*
X200950000Y-127840000D03*
%TD*%
D16*
%TO.C,U2*%
X254787500Y-93436000D03*
D17*
X254787500Y-94271000D03*
D16*
X252247500Y-93436000D03*
D17*
X252247500Y-94271000D03*
D16*
X249707500Y-93436000D03*
D17*
X249707500Y-94271000D03*
D16*
X247167500Y-93436000D03*
D17*
X247167500Y-94271000D03*
D16*
X244627500Y-93436000D03*
D17*
X244627500Y-94271000D03*
D16*
X242087500Y-93436000D03*
D17*
X242087500Y-94271000D03*
D16*
X239547500Y-93436000D03*
D17*
X239547500Y-94271000D03*
X239547500Y-109511000D03*
D18*
X239547500Y-110346000D03*
D17*
X242087500Y-109511000D03*
D18*
X242087500Y-110346000D03*
D17*
X244627500Y-109511000D03*
D18*
X244627500Y-110346000D03*
D17*
X247167500Y-109511000D03*
D18*
X247167500Y-110346000D03*
D17*
X249707500Y-109511000D03*
D18*
X249707500Y-110346000D03*
D17*
X252247500Y-109511000D03*
D18*
X252247500Y-110346000D03*
D17*
X254787500Y-109511000D03*
D18*
X254787500Y-110346000D03*
%TD*%
D19*
%TO.C,U1*%
X220000000Y-87000000D03*
D20*
X222540000Y-87000000D03*
X225080000Y-87000000D03*
X227620000Y-87000000D03*
%TD*%
D11*
%TO.C,J2*%
X238500000Y-117340000D03*
D13*
X238500000Y-119880000D03*
X238500000Y-122420000D03*
X238500000Y-124960000D03*
X238500000Y-127500000D03*
X238500000Y-130040000D03*
X238500000Y-132580000D03*
X238500000Y-135120000D03*
%TD*%
%TO.C,SW1*%
X191920000Y-98500000D03*
D14*
X197000000Y-98500000D03*
D13*
X202080000Y-98500000D03*
D15*
X199540000Y-93420000D03*
X193190000Y-95960000D03*
%TD*%
D21*
%TO.C,R1*%
X220190000Y-82500000D03*
X227810000Y-82500000D03*
%TD*%
M02*
